# xmcd CD database file
#
# Track frame offsets:
#	150
#	12319
#	26028
#	33473
#	47218
#	60373
#	76954
#	94245
#	104899
#	112279
#	119293
#	129997
#	144667
#	156830
#	164519
#	175822
#
# Disc length: 2709 seconds
#
# Revision: 6
# Processed by: cddbd v1.5.2PL0 Copyright (c) Steve Scherf et al.
# Submitted via: CDex 1.70beta2
#
DISCID=e00a9310
DTITLE=Johnny Cash - Johnny Cash At Folsom Prison
DYEAR=1968
DGENRE=Country
TTITLE0=Fosom Prison Blues
TTITLE1=Dark As The Dungeon
TTITLE2=I Still Miss Someone
TTITLE3=Cocaine Blues
TTITLE4=25 Minutes To Go
TTITLE5=Orange Blossom Special
TTITLE6=The Long Black Veil
TTITLE7=Send A Picture Of Mother
TTITLE8=The Wall
TTITLE9=Dirty Old Egg-Sucking Dog
TTITLE10=Flushed From The Bathroom Of Your Heart
TTITLE11=Jackson
TTITLE12=Give My Love To Rose
TTITLE13=I Got Stripes
TTITLE14=Green, Green Grass Of Home
TTITLE15=Greystone Chapel
EXTD=YEAR: 1968
EXTT0=
EXTT1=
EXTT2=
EXTT3=
EXTT4=
EXTT5=
EXTT6=
EXTT7=
EXTT8=
EXTT9=
EXTT10=
EXTT11=
EXTT12=
EXTT13=
EXTT14=
EXTT15=
PLAYORDER=
